<?xml version="1.0" encoding="iso-8859-1"?>
<!-- Generator: Adobe Illustrator 19.0.0, SVG Export Plug-In . SVG Version: 6.00 Build 0)  -->
<svg version="1.1" id="Layer_1" xmlns="http://www.w3.org/2000/svg" xmlns:xlink="http://www.w3.org/1999/xlink" x="0px" y="0px"
	 viewBox="0 0 512.001 512.001" style="enable-background:new 0 0 512.001 512.001;" xml:space="preserve">
<path style="fill:#F2EBD9;" d="M98.767,46.363c-28.825,0-52.41,23.584-52.41,52.41V140.7l178.192,20.964V46.363
	C224.55,46.363,98.767,46.363,98.767,46.363z"/>
<path style="fill:#F9DCA7;" d="M465.634,98.772c0-28.825-23.584-52.41-52.41-52.41H235.032v115.301L465.634,140.7V98.772z"/>
<rect x="449.918" y="41.257" transform="matrix(-0.9487 -0.3162 0.3162 -0.9487 862.9036 421.4143)" style="fill:#FFB55F;" width="31.446" height="198.885"/>
<rect x="-53.083" y="124.975" transform="matrix(-0.3162 -0.9487 0.9487 -0.3162 -72.4607 229.1676)" style="fill:#FFCC75;" width="198.885" height="31.446"/>
<polygon style="fill:#D82F30;" points="109.249,14.917 109.249,161.663 203.586,161.663 182.622,14.917 "/>
<rect x="182.622" y="14.917" style="fill:#FF6E1D;" width="73.373" height="146.747"/>
<rect x="46.358" y="140.7" style="fill:#FFCC75;" width="209.638" height="356.385"/>
<rect x="255.996" y="140.7" style="fill:#FFB55F;" width="209.638" height="356.385"/>
<path style="fill:#D82F30;" d="M161.658,203.591h20.964l20.964,78.614l-20.964,78.614h-20.964c-28.825,0-52.41-23.584-52.41-52.409
	v-52.41C109.249,227.175,132.833,203.591,161.658,203.591z"/>
<polygon style="fill:#FF6E1D;" points="255.996,203.591 276.959,282.205 255.996,360.82 182.622,360.82 182.622,203.591 "/>
<polygon style="fill:#6DA8D6;" points="329.369,203.591 350.333,282.205 329.369,360.82 255.996,360.82 255.996,203.591 "/>
<path style="fill:#C1E8E6;" d="M350.333,203.591h-20.964V360.82h20.964c28.825,0,52.409-23.584,52.409-52.409v-52.41
	C402.742,227.175,379.158,203.591,350.333,203.591z"/>
<g>
</g>
<g>
</g>
<g>
</g>
<g>
</g>
<g>
</g>
<g>
</g>
<g>
</g>
<g>
</g>
<g>
</g>
<g>
</g>
<g>
</g>
<g>
</g>
<g>
</g>
<g>
</g>
<g>
</g>
</svg>
