<?xml version="1.0" encoding="iso-8859-1"?>
<!-- Generator: Adobe Illustrator 19.0.0, SVG Export Plug-In . SVG Version: 6.00 Build 0)  -->
<svg version="1.1" id="Layer_1" xmlns="http://www.w3.org/2000/svg" xmlns:xlink="http://www.w3.org/1999/xlink" x="0px" y="0px"
	 viewBox="0 0 512 512" style="enable-background:new 0 0 512 512;" xml:space="preserve">
<polygon style="fill:#FF6E1D;" points="68.693,301.64 210.36,443.307 328.416,325.251 273.322,238.678 186.749,183.584 "/>
<polygon style="fill:#FFCC75;" points="186.749,183.584 328.416,325.251 414.99,238.678 359.897,152.103 273.322,97.01 "/>
<path style="fill:#C1E8E6;" d="M281.194,89.139l-7.87,7.87L414.99,238.677l7.87-7.87c21.733-21.733,21.733-56.97,0-78.704
	l-62.964-62.964C338.164,67.406,302.927,67.406,281.194,89.139z"/>
<polygon style="fill:#4284B2;" points="155.826,311.652 200.348,512 322.783,512 345.043,411.826 322.783,311.652 "/>
<polygon style="fill:#6DA8D6;" points="322.783,311.652 322.783,512 445.217,512 467.478,411.826 445.217,311.652 "/>
<path style="fill:#C1E8E6;" d="M456.348,311.652h-11.13V512h11.13C487.083,512,512,487.083,512,456.348v-89.043
	C512,336.569,487.083,311.652,456.348,311.652z"/>
<path style="fill:#98D9D5;" d="M55.652,0C24.917,0,0,24.917,0,55.652V512h100.174l22.261-256L100.174,0H55.652z"/>
<path style="fill:#77C0BC;" d="M200.348,55.652C200.348,24.917,175.431,0,144.696,0h-44.522v512h100.174V55.652z"/>
<circle style="fill:#185F8D;" cx="100.174" cy="411.826" r="16.696"/>
<g>
</g>
<g>
</g>
<g>
</g>
<g>
</g>
<g>
</g>
<g>
</g>
<g>
</g>
<g>
</g>
<g>
</g>
<g>
</g>
<g>
</g>
<g>
</g>
<g>
</g>
<g>
</g>
<g>
</g>
</svg>
